<mxfile host="app.diagrams.net" modified="2021-05-02T19:28:11.196Z" agent="5.0 (Windows NT 10.0; Win64; x64) AppleWebKit/537.36 (KHTML, like Gecko) Chrome/89.0.4389.128 Safari/537.36 OPR/75.0.3969.243" etag="Jz2BiCn9mG1J858JjFiC" version="14.5.1" type="github">
  <diagram name="Page-1" id="0783ab3e-0a74-02c8-0abd-f7b4e66b4bec">
    <mxGraphModel dx="1564" dy="1558" grid="1" gridSize="10" guides="1" tooltips="1" connect="1" arrows="1" fold="1" page="1" pageScale="1" pageWidth="850" pageHeight="1100" background="#ffffff" math="0" shadow="0">
      <root>
        <mxCell id="0" />
        <mxCell id="1" parent="0" />
        <mxCell id="1c1d494c118603dd-1" value="Pool" style="swimlane;html=1;childLayout=stackLayout;startSize=20;rounded=0;shadow=0;comic=0;labelBackgroundColor=none;strokeWidth=1;fontFamily=Verdana;fontSize=12;align=center;" parent="1" vertex="1">
          <mxGeometry x="40" y="20" width="1030" height="990" as="geometry" />
        </mxCell>
        <mxCell id="1c1d494c118603dd-2" value="Admin" style="swimlane;html=1;startSize=20;" parent="1c1d494c118603dd-1" vertex="1">
          <mxGeometry y="20" width="250" height="970" as="geometry" />
        </mxCell>
        <mxCell id="60571a20871a0731-4" value="" style="ellipse;whiteSpace=wrap;html=1;rounded=0;shadow=0;comic=0;labelBackgroundColor=none;strokeWidth=1;fillColor=#000000;fontFamily=Verdana;fontSize=12;align=center;" parent="1c1d494c118603dd-2" vertex="1">
          <mxGeometry x="100" y="50" width="40" height="40" as="geometry" />
        </mxCell>
        <mxCell id="60571a20871a0731-8" value="Login" style="rounded=1;whiteSpace=wrap;html=1;shadow=0;comic=0;labelBackgroundColor=none;strokeWidth=1;fontFamily=Verdana;fontSize=12;align=center;arcSize=50;" parent="1c1d494c118603dd-2" vertex="1">
          <mxGeometry x="70" y="120" width="100" height="30" as="geometry" />
        </mxCell>
        <mxCell id="1c1d494c118603dd-27" style="edgeStyle=orthogonalEdgeStyle;rounded=0;html=1;labelBackgroundColor=none;startArrow=none;startFill=0;startSize=5;endArrow=classicThin;endFill=1;endSize=5;jettySize=auto;orthogonalLoop=1;strokeWidth=1;fontFamily=Verdana;fontSize=12" parent="1c1d494c118603dd-2" source="60571a20871a0731-4" target="60571a20871a0731-8" edge="1">
          <mxGeometry relative="1" as="geometry" />
        </mxCell>
        <mxCell id="feAVlpUrrlh7gay0loe1-64" value="" style="rhombus;whiteSpace=wrap;html=1;color=black;fillColor=#bac8d3;strokeColor=#23445d;" vertex="1" parent="1c1d494c118603dd-2">
          <mxGeometry x="87.5" y="180" width="65" height="64" as="geometry" />
        </mxCell>
        <mxCell id="feAVlpUrrlh7gay0loe1-66" value="&lt;span style=&quot;font-size: 24px&quot;&gt;[Fail]&lt;/span&gt;" style="edgeStyle=orthogonalEdgeStyle;rounded=0;orthogonalLoop=1;jettySize=auto;html=1;exitX=1;exitY=0.5;exitDx=0;exitDy=0;entryX=1;entryY=0.5;entryDx=0;entryDy=0;" edge="1" parent="1c1d494c118603dd-2" source="feAVlpUrrlh7gay0loe1-64" target="60571a20871a0731-8">
          <mxGeometry x="-0.0076" relative="1" as="geometry">
            <mxPoint x="200" y="140" as="targetPoint" />
            <Array as="points">
              <mxPoint x="200" y="212" />
              <mxPoint x="200" y="135" />
            </Array>
            <mxPoint as="offset" />
          </mxGeometry>
        </mxCell>
        <mxCell id="feAVlpUrrlh7gay0loe1-80" value="" style="line;strokeWidth=11;fillColor=none;align=left;verticalAlign=middle;spacingTop=-1;spacingLeft=3;spacingRight=3;rotatable=0;labelPosition=right;points=[];portConstraint=eastwest;fontStyle=1" vertex="1" parent="1c1d494c118603dd-2">
          <mxGeometry x="65" y="320" width="110" height="20" as="geometry" />
        </mxCell>
        <mxCell id="feAVlpUrrlh7gay0loe1-158" value="" style="endArrow=open;endFill=1;endSize=12;html=1;" edge="1" parent="1c1d494c118603dd-2">
          <mxGeometry width="160" relative="1" as="geometry">
            <mxPoint x="65" y="329.16999999999996" as="sourcePoint" />
            <mxPoint x="65" y="400" as="targetPoint" />
          </mxGeometry>
        </mxCell>
        <mxCell id="feAVlpUrrlh7gay0loe1-162" value="See statics" style="rounded=1;whiteSpace=wrap;html=1;shadow=0;comic=0;labelBackgroundColor=none;strokeWidth=1;fontFamily=Verdana;fontSize=12;align=center;arcSize=50;" vertex="1" parent="1c1d494c118603dd-2">
          <mxGeometry x="20" y="400" width="100" height="30" as="geometry" />
        </mxCell>
        <mxCell id="1c1d494c118603dd-3" value="Human Sources" style="swimlane;html=1;startSize=20;" parent="1c1d494c118603dd-1" vertex="1">
          <mxGeometry x="250" y="20" width="380" height="970" as="geometry" />
        </mxCell>
        <mxCell id="feAVlpUrrlh7gay0loe1-81" value="" style="ellipse;whiteSpace=wrap;html=1;rounded=0;shadow=0;comic=0;labelBackgroundColor=none;strokeWidth=1;fillColor=#000000;fontFamily=Verdana;fontSize=12;align=center;" vertex="1" parent="1c1d494c118603dd-3">
          <mxGeometry x="175" y="40" width="40" height="40" as="geometry" />
        </mxCell>
        <mxCell id="feAVlpUrrlh7gay0loe1-82" value="Login" style="rounded=1;whiteSpace=wrap;html=1;shadow=0;comic=0;labelBackgroundColor=none;strokeWidth=1;fontFamily=Verdana;fontSize=12;align=center;arcSize=50;" vertex="1" parent="1c1d494c118603dd-3">
          <mxGeometry x="145" y="110" width="100" height="30" as="geometry" />
        </mxCell>
        <mxCell id="feAVlpUrrlh7gay0loe1-83" style="edgeStyle=orthogonalEdgeStyle;rounded=0;html=1;labelBackgroundColor=none;startArrow=none;startFill=0;startSize=5;endArrow=classicThin;endFill=1;endSize=5;jettySize=auto;orthogonalLoop=1;strokeWidth=1;fontFamily=Verdana;fontSize=12" edge="1" parent="1c1d494c118603dd-3" source="feAVlpUrrlh7gay0loe1-81" target="feAVlpUrrlh7gay0loe1-82">
          <mxGeometry relative="1" as="geometry" />
        </mxCell>
        <mxCell id="feAVlpUrrlh7gay0loe1-84" value="" style="rhombus;whiteSpace=wrap;html=1;color=black;fillColor=#bac8d3;strokeColor=#23445d;" vertex="1" parent="1c1d494c118603dd-3">
          <mxGeometry x="162.5" y="170" width="65" height="64" as="geometry" />
        </mxCell>
        <mxCell id="feAVlpUrrlh7gay0loe1-85" value="&lt;span style=&quot;font-size: 24px&quot;&gt;[Fail]&lt;/span&gt;" style="edgeStyle=orthogonalEdgeStyle;rounded=0;orthogonalLoop=1;jettySize=auto;html=1;exitX=1;exitY=0.5;exitDx=0;exitDy=0;entryX=1;entryY=0.5;entryDx=0;entryDy=0;" edge="1" parent="1c1d494c118603dd-3" source="feAVlpUrrlh7gay0loe1-84" target="feAVlpUrrlh7gay0loe1-82">
          <mxGeometry x="-0.0076" relative="1" as="geometry">
            <mxPoint x="235" y="90" as="targetPoint" />
            <Array as="points">
              <mxPoint x="275" y="202" />
              <mxPoint x="275" y="125" />
            </Array>
            <mxPoint as="offset" />
          </mxGeometry>
        </mxCell>
        <mxCell id="feAVlpUrrlh7gay0loe1-86" value="" style="line;strokeWidth=11;fillColor=none;align=left;verticalAlign=middle;spacingTop=-1;spacingLeft=3;spacingRight=3;rotatable=0;labelPosition=right;points=[];portConstraint=eastwest;fontStyle=1" vertex="1" parent="1c1d494c118603dd-3">
          <mxGeometry x="140" y="310" width="110" height="20" as="geometry" />
        </mxCell>
        <mxCell id="feAVlpUrrlh7gay0loe1-87" style="edgeStyle=orthogonalEdgeStyle;rounded=0;orthogonalLoop=1;jettySize=auto;html=1;exitX=0.5;exitY=1;exitDx=0;exitDy=0;" edge="1" parent="1c1d494c118603dd-3" source="feAVlpUrrlh7gay0loe1-82">
          <mxGeometry relative="1" as="geometry">
            <mxPoint x="195" y="170" as="targetPoint" />
          </mxGeometry>
        </mxCell>
        <mxCell id="feAVlpUrrlh7gay0loe1-88" value="&lt;font style=&quot;font-size: 20px&quot;&gt;[Succeeded]&lt;/font&gt;" style="edgeStyle=orthogonalEdgeStyle;rounded=0;orthogonalLoop=1;jettySize=auto;html=1;" edge="1" parent="1c1d494c118603dd-3">
          <mxGeometry relative="1" as="geometry">
            <mxPoint x="195" y="310" as="targetPoint" />
            <mxPoint x="195" y="230" as="sourcePoint" />
            <Array as="points">
              <mxPoint x="195" y="300" />
            </Array>
          </mxGeometry>
        </mxCell>
        <mxCell id="feAVlpUrrlh7gay0loe1-163" value="Add/Remove&lt;br&gt;Human Sources" style="rounded=1;whiteSpace=wrap;html=1;shadow=0;comic=0;labelBackgroundColor=none;strokeWidth=1;fontFamily=Verdana;fontSize=12;align=center;arcSize=50;" vertex="1" parent="1c1d494c118603dd-3">
          <mxGeometry x="35" y="180" width="100" height="40" as="geometry" />
        </mxCell>
        <mxCell id="feAVlpUrrlh7gay0loe1-164" value="See ccompany requests" style="rounded=1;whiteSpace=wrap;html=1;shadow=0;comic=0;labelBackgroundColor=none;strokeWidth=1;fontFamily=Verdana;fontSize=12;align=center;arcSize=50;" vertex="1" parent="1c1d494c118603dd-3">
          <mxGeometry y="620" width="100" height="30" as="geometry" />
        </mxCell>
        <mxCell id="feAVlpUrrlh7gay0loe1-167" value="" style="endArrow=open;endFill=1;endSize=12;html=1;exitX=0.036;exitY=0.6;exitDx=0;exitDy=0;exitPerimeter=0;entryX=0.25;entryY=0;entryDx=0;entryDy=0;" edge="1" parent="1c1d494c118603dd-3" source="feAVlpUrrlh7gay0loe1-86" target="feAVlpUrrlh7gay0loe1-164">
          <mxGeometry width="160" relative="1" as="geometry">
            <mxPoint x="180" y="340" as="sourcePoint" />
            <mxPoint x="180" y="410.8299999999999" as="targetPoint" />
          </mxGeometry>
        </mxCell>
        <mxCell id="feAVlpUrrlh7gay0loe1-179" value="Delete candidate" style="rounded=1;whiteSpace=wrap;html=1;shadow=0;comic=0;labelBackgroundColor=none;strokeWidth=1;fontFamily=Verdana;fontSize=12;align=center;arcSize=50;" vertex="1" parent="1c1d494c118603dd-3">
          <mxGeometry x="245" y="640" width="100" height="30" as="geometry" />
        </mxCell>
        <mxCell id="feAVlpUrrlh7gay0loe1-180" value="Arrange meeting between candidate and company" style="rounded=1;whiteSpace=wrap;html=1;shadow=0;comic=0;labelBackgroundColor=none;strokeWidth=1;fontFamily=Verdana;fontSize=12;align=center;arcSize=50;" vertex="1" parent="1c1d494c118603dd-3">
          <mxGeometry x="280" y="370" width="100" height="80" as="geometry" />
        </mxCell>
        <mxCell id="feAVlpUrrlh7gay0loe1-161" value="" style="endArrow=open;endFill=1;endSize=12;html=1;exitX=1.003;exitY=0.517;exitDx=0;exitDy=0;exitPerimeter=0;" edge="1" parent="1c1d494c118603dd-1" source="feAVlpUrrlh7gay0loe1-80">
          <mxGeometry width="160" relative="1" as="geometry">
            <mxPoint x="170" y="360" as="sourcePoint" />
            <mxPoint x="300" y="240" as="targetPoint" />
          </mxGeometry>
        </mxCell>
        <mxCell id="1c1d494c118603dd-4" value="Applicant Company" style="swimlane;html=1;startSize=20;" parent="1c1d494c118603dd-1" vertex="1">
          <mxGeometry x="630" y="20" width="400" height="970" as="geometry" />
        </mxCell>
        <mxCell id="feAVlpUrrlh7gay0loe1-89" value="" style="ellipse;whiteSpace=wrap;html=1;rounded=0;shadow=0;comic=0;labelBackgroundColor=none;strokeWidth=1;fillColor=#000000;fontFamily=Verdana;fontSize=12;align=center;" vertex="1" parent="1c1d494c118603dd-4">
          <mxGeometry x="195" y="50" width="40" height="40" as="geometry" />
        </mxCell>
        <mxCell id="feAVlpUrrlh7gay0loe1-90" value="Login" style="rounded=1;whiteSpace=wrap;html=1;shadow=0;comic=0;labelBackgroundColor=none;strokeWidth=1;fontFamily=Verdana;fontSize=12;align=center;arcSize=50;" vertex="1" parent="1c1d494c118603dd-4">
          <mxGeometry x="165" y="120" width="100" height="30" as="geometry" />
        </mxCell>
        <mxCell id="feAVlpUrrlh7gay0loe1-91" style="edgeStyle=orthogonalEdgeStyle;rounded=0;html=1;labelBackgroundColor=none;startArrow=none;startFill=0;startSize=5;endArrow=classicThin;endFill=1;endSize=5;jettySize=auto;orthogonalLoop=1;strokeWidth=1;fontFamily=Verdana;fontSize=12" edge="1" parent="1c1d494c118603dd-4" source="feAVlpUrrlh7gay0loe1-89" target="feAVlpUrrlh7gay0loe1-90">
          <mxGeometry relative="1" as="geometry" />
        </mxCell>
        <mxCell id="feAVlpUrrlh7gay0loe1-92" value="" style="rhombus;whiteSpace=wrap;html=1;color=black;fillColor=#bac8d3;strokeColor=#23445d;" vertex="1" parent="1c1d494c118603dd-4">
          <mxGeometry x="182.5" y="180" width="65" height="64" as="geometry" />
        </mxCell>
        <mxCell id="feAVlpUrrlh7gay0loe1-93" value="&lt;span style=&quot;font-size: 24px&quot;&gt;[Fail]&lt;/span&gt;" style="edgeStyle=orthogonalEdgeStyle;rounded=0;orthogonalLoop=1;jettySize=auto;html=1;exitX=1;exitY=0.5;exitDx=0;exitDy=0;entryX=1;entryY=0.5;entryDx=0;entryDy=0;" edge="1" parent="1c1d494c118603dd-4" source="feAVlpUrrlh7gay0loe1-92" target="feAVlpUrrlh7gay0loe1-90">
          <mxGeometry x="-0.0076" relative="1" as="geometry">
            <mxPoint x="-35" y="60" as="targetPoint" />
            <Array as="points">
              <mxPoint x="295" y="212" />
              <mxPoint x="295" y="135" />
            </Array>
            <mxPoint as="offset" />
          </mxGeometry>
        </mxCell>
        <mxCell id="feAVlpUrrlh7gay0loe1-94" value="" style="line;strokeWidth=11;fillColor=none;align=left;verticalAlign=middle;spacingTop=-1;spacingLeft=3;spacingRight=3;rotatable=0;labelPosition=right;points=[];portConstraint=eastwest;fontStyle=1" vertex="1" parent="1c1d494c118603dd-4">
          <mxGeometry x="160" y="320" width="110" height="20" as="geometry" />
        </mxCell>
        <mxCell id="feAVlpUrrlh7gay0loe1-95" style="edgeStyle=orthogonalEdgeStyle;rounded=0;orthogonalLoop=1;jettySize=auto;html=1;exitX=0.5;exitY=1;exitDx=0;exitDy=0;" edge="1" parent="1c1d494c118603dd-4" source="feAVlpUrrlh7gay0loe1-90">
          <mxGeometry relative="1" as="geometry">
            <mxPoint x="215" y="180" as="targetPoint" />
          </mxGeometry>
        </mxCell>
        <mxCell id="feAVlpUrrlh7gay0loe1-96" value="&lt;font style=&quot;font-size: 20px&quot;&gt;[Succeeded]&lt;/font&gt;" style="edgeStyle=orthogonalEdgeStyle;rounded=0;orthogonalLoop=1;jettySize=auto;html=1;" edge="1" parent="1c1d494c118603dd-4">
          <mxGeometry relative="1" as="geometry">
            <mxPoint x="215" y="320" as="targetPoint" />
            <mxPoint x="215" y="240" as="sourcePoint" />
            <Array as="points">
              <mxPoint x="215" y="310" />
            </Array>
          </mxGeometry>
        </mxCell>
        <mxCell id="feAVlpUrrlh7gay0loe1-109" value="&lt;span style=&quot;font-size: 24px&quot;&gt;[Fail]&lt;/span&gt;" style="edgeStyle=orthogonalEdgeStyle;rounded=0;orthogonalLoop=1;jettySize=auto;html=1;exitX=1;exitY=0.5;exitDx=0;exitDy=0;entryX=1;entryY=0.5;entryDx=0;entryDy=0;" edge="1" parent="1c1d494c118603dd-4" source="feAVlpUrrlh7gay0loe1-108">
          <mxGeometry x="-0.0076" relative="1" as="geometry">
            <mxPoint x="157.5" y="515" as="targetPoint" />
            <Array as="points">
              <mxPoint x="187.5" y="592" />
              <mxPoint x="187.5" y="515" />
            </Array>
            <mxPoint as="offset" />
          </mxGeometry>
        </mxCell>
        <mxCell id="feAVlpUrrlh7gay0loe1-177" value="Suggest Candidate to Company" style="rounded=1;whiteSpace=wrap;html=1;shadow=0;comic=0;labelBackgroundColor=none;strokeWidth=1;fontFamily=Verdana;fontSize=12;align=center;arcSize=50;" vertex="1" parent="1c1d494c118603dd-4">
          <mxGeometry x="20" y="600" width="100" height="50" as="geometry" />
        </mxCell>
        <mxCell id="feAVlpUrrlh7gay0loe1-191" value="See ccompany requests" style="rounded=1;whiteSpace=wrap;html=1;shadow=0;comic=0;labelBackgroundColor=none;strokeWidth=1;fontFamily=Verdana;fontSize=12;align=center;arcSize=50;" vertex="1" parent="1c1d494c118603dd-4">
          <mxGeometry x="118.10000000000002" y="630" width="100" height="30" as="geometry" />
        </mxCell>
        <mxCell id="feAVlpUrrlh7gay0loe1-192" value="" style="endArrow=open;endFill=1;endSize=12;html=1;exitX=0.036;exitY=0.6;exitDx=0;exitDy=0;exitPerimeter=0;entryX=0.25;entryY=0;entryDx=0;entryDy=0;" edge="1" parent="1c1d494c118603dd-4" target="feAVlpUrrlh7gay0loe1-191">
          <mxGeometry width="160" relative="1" as="geometry">
            <mxPoint x="262.06000000000006" y="332" as="sourcePoint" />
            <mxPoint x="8.100000000000023" y="380.8299999999999" as="targetPoint" />
          </mxGeometry>
        </mxCell>
        <mxCell id="feAVlpUrrlh7gay0loe1-193" value="" style="endArrow=open;endFill=1;endSize=12;html=1;" edge="1" parent="1c1d494c118603dd-4">
          <mxGeometry width="160" relative="1" as="geometry">
            <mxPoint x="268.1" y="630" as="sourcePoint" />
            <mxPoint x="268.1" y="630" as="targetPoint" />
          </mxGeometry>
        </mxCell>
        <mxCell id="feAVlpUrrlh7gay0loe1-194" value="" style="endArrow=open;endFill=1;endSize=12;html=1;" edge="1" parent="1c1d494c118603dd-4">
          <mxGeometry width="160" relative="1" as="geometry">
            <mxPoint x="258.1" y="330" as="sourcePoint" />
            <mxPoint x="281.9095238095239" y="630" as="targetPoint" />
          </mxGeometry>
        </mxCell>
        <mxCell id="feAVlpUrrlh7gay0loe1-178" value="" style="endArrow=open;endFill=1;endSize=12;html=1;exitX=0.036;exitY=0.4;exitDx=0;exitDy=0;exitPerimeter=0;" edge="1" parent="1c1d494c118603dd-1" source="feAVlpUrrlh7gay0loe1-86" target="feAVlpUrrlh7gay0loe1-177">
          <mxGeometry width="160" relative="1" as="geometry">
            <mxPoint x="393.96000000000004" y="338" as="sourcePoint" />
            <mxPoint x="500" y="650" as="targetPoint" />
          </mxGeometry>
        </mxCell>
        <mxCell id="feAVlpUrrlh7gay0loe1-65" style="edgeStyle=orthogonalEdgeStyle;rounded=0;orthogonalLoop=1;jettySize=auto;html=1;exitX=0.5;exitY=1;exitDx=0;exitDy=0;" edge="1" parent="1" source="60571a20871a0731-8">
          <mxGeometry relative="1" as="geometry">
            <mxPoint x="160" y="220" as="targetPoint" />
          </mxGeometry>
        </mxCell>
        <mxCell id="feAVlpUrrlh7gay0loe1-71" value="&lt;font style=&quot;font-size: 20px&quot;&gt;[Succeeded]&lt;/font&gt;" style="edgeStyle=orthogonalEdgeStyle;rounded=0;orthogonalLoop=1;jettySize=auto;html=1;" edge="1" parent="1">
          <mxGeometry relative="1" as="geometry">
            <mxPoint x="160" y="360" as="targetPoint" />
            <mxPoint x="160" y="280" as="sourcePoint" />
            <Array as="points">
              <mxPoint x="160" y="350" />
            </Array>
          </mxGeometry>
        </mxCell>
        <mxCell id="feAVlpUrrlh7gay0loe1-146" value="Candidate" style="swimlane;html=1;startSize=20;" vertex="1" parent="1">
          <mxGeometry x="1070" y="40" width="370" height="970" as="geometry" />
        </mxCell>
        <mxCell id="feAVlpUrrlh7gay0loe1-147" value="" style="ellipse;whiteSpace=wrap;html=1;rounded=0;shadow=0;comic=0;labelBackgroundColor=none;strokeWidth=1;fillColor=#000000;fontFamily=Verdana;fontSize=12;align=center;" vertex="1" parent="feAVlpUrrlh7gay0loe1-146">
          <mxGeometry x="165" y="50" width="40" height="40" as="geometry" />
        </mxCell>
        <mxCell id="feAVlpUrrlh7gay0loe1-148" value="Login" style="rounded=1;whiteSpace=wrap;html=1;shadow=0;comic=0;labelBackgroundColor=none;strokeWidth=1;fontFamily=Verdana;fontSize=12;align=center;arcSize=50;" vertex="1" parent="feAVlpUrrlh7gay0loe1-146">
          <mxGeometry x="135" y="120" width="100" height="30" as="geometry" />
        </mxCell>
        <mxCell id="feAVlpUrrlh7gay0loe1-149" style="edgeStyle=orthogonalEdgeStyle;rounded=0;html=1;labelBackgroundColor=none;startArrow=none;startFill=0;startSize=5;endArrow=classicThin;endFill=1;endSize=5;jettySize=auto;orthogonalLoop=1;strokeWidth=1;fontFamily=Verdana;fontSize=12" edge="1" parent="feAVlpUrrlh7gay0loe1-146" source="feAVlpUrrlh7gay0loe1-147" target="feAVlpUrrlh7gay0loe1-148">
          <mxGeometry relative="1" as="geometry" />
        </mxCell>
        <mxCell id="feAVlpUrrlh7gay0loe1-150" value="" style="rhombus;whiteSpace=wrap;html=1;color=black;fillColor=#bac8d3;strokeColor=#23445d;" vertex="1" parent="feAVlpUrrlh7gay0loe1-146">
          <mxGeometry x="152.5" y="180" width="65" height="64" as="geometry" />
        </mxCell>
        <mxCell id="feAVlpUrrlh7gay0loe1-151" value="&lt;span style=&quot;font-size: 24px&quot;&gt;[Fail]&lt;/span&gt;" style="edgeStyle=orthogonalEdgeStyle;rounded=0;orthogonalLoop=1;jettySize=auto;html=1;exitX=1;exitY=0.5;exitDx=0;exitDy=0;entryX=1;entryY=0.5;entryDx=0;entryDy=0;" edge="1" parent="feAVlpUrrlh7gay0loe1-146" source="feAVlpUrrlh7gay0loe1-150" target="feAVlpUrrlh7gay0loe1-148">
          <mxGeometry x="-0.0076" relative="1" as="geometry">
            <mxPoint x="-65" y="60" as="targetPoint" />
            <Array as="points">
              <mxPoint x="265" y="212" />
              <mxPoint x="265" y="135" />
            </Array>
            <mxPoint as="offset" />
          </mxGeometry>
        </mxCell>
        <mxCell id="feAVlpUrrlh7gay0loe1-152" value="" style="line;strokeWidth=11;fillColor=none;align=left;verticalAlign=middle;spacingTop=-1;spacingLeft=3;spacingRight=3;rotatable=0;labelPosition=right;points=[];portConstraint=eastwest;fontStyle=1" vertex="1" parent="feAVlpUrrlh7gay0loe1-146">
          <mxGeometry x="130" y="320" width="110" height="20" as="geometry" />
        </mxCell>
        <mxCell id="feAVlpUrrlh7gay0loe1-153" style="edgeStyle=orthogonalEdgeStyle;rounded=0;orthogonalLoop=1;jettySize=auto;html=1;exitX=0.5;exitY=1;exitDx=0;exitDy=0;" edge="1" parent="feAVlpUrrlh7gay0loe1-146" source="feAVlpUrrlh7gay0loe1-148">
          <mxGeometry relative="1" as="geometry">
            <mxPoint x="185" y="180" as="targetPoint" />
          </mxGeometry>
        </mxCell>
        <mxCell id="feAVlpUrrlh7gay0loe1-154" value="&lt;font style=&quot;font-size: 20px&quot;&gt;[Succeeded]&lt;/font&gt;" style="edgeStyle=orthogonalEdgeStyle;rounded=0;orthogonalLoop=1;jettySize=auto;html=1;" edge="1" parent="feAVlpUrrlh7gay0loe1-146">
          <mxGeometry relative="1" as="geometry">
            <mxPoint x="185" y="320" as="targetPoint" />
            <mxPoint x="185" y="240" as="sourcePoint" />
            <Array as="points">
              <mxPoint x="185" y="310" />
            </Array>
          </mxGeometry>
        </mxCell>
        <mxCell id="feAVlpUrrlh7gay0loe1-155" value="&lt;span style=&quot;font-size: 24px&quot;&gt;[Fail]&lt;/span&gt;" style="edgeStyle=orthogonalEdgeStyle;rounded=0;orthogonalLoop=1;jettySize=auto;html=1;exitX=1;exitY=0.5;exitDx=0;exitDy=0;entryX=1;entryY=0.5;entryDx=0;entryDy=0;" edge="1" parent="feAVlpUrrlh7gay0loe1-146">
          <mxGeometry x="-0.0076" relative="1" as="geometry">
            <mxPoint x="157.5" y="515" as="targetPoint" />
            <Array as="points">
              <mxPoint x="187.5" y="592" />
              <mxPoint x="187.5" y="515" />
            </Array>
            <mxPoint as="offset" />
          </mxGeometry>
        </mxCell>
        <mxCell id="feAVlpUrrlh7gay0loe1-168" value="" style="endArrow=open;endFill=1;endSize=12;html=1;" edge="1" parent="1" source="feAVlpUrrlh7gay0loe1-172">
          <mxGeometry width="160" relative="1" as="geometry">
            <mxPoint x="430" y="360" as="sourcePoint" />
            <mxPoint x="440" y="660" as="targetPoint" />
          </mxGeometry>
        </mxCell>
        <mxCell id="feAVlpUrrlh7gay0loe1-170" value="" style="endArrow=open;endFill=1;endSize=12;html=1;exitX=0.618;exitY=0.7;exitDx=0;exitDy=0;exitPerimeter=0;" edge="1" parent="1" source="feAVlpUrrlh7gay0loe1-86">
          <mxGeometry width="160" relative="1" as="geometry">
            <mxPoint x="500" y="400" as="sourcePoint" />
            <mxPoint x="610" y="670" as="targetPoint" />
          </mxGeometry>
        </mxCell>
        <mxCell id="feAVlpUrrlh7gay0loe1-171" value="" style="endArrow=open;endFill=1;endSize=12;html=1;exitX=0.909;exitY=0.5;exitDx=0;exitDy=0;exitPerimeter=0;" edge="1" parent="1" source="feAVlpUrrlh7gay0loe1-86">
          <mxGeometry width="160" relative="1" as="geometry">
            <mxPoint x="580" y="380" as="sourcePoint" />
            <mxPoint x="590" y="410" as="targetPoint" />
          </mxGeometry>
        </mxCell>
        <mxCell id="feAVlpUrrlh7gay0loe1-172" value="Give offer to candidate" style="rounded=1;whiteSpace=wrap;html=1;shadow=0;comic=0;labelBackgroundColor=none;strokeWidth=1;fontFamily=Verdana;fontSize=12;align=center;arcSize=50;" vertex="1" parent="1">
          <mxGeometry x="405" y="660" width="100" height="30" as="geometry" />
        </mxCell>
        <mxCell id="feAVlpUrrlh7gay0loe1-173" value="" style="endArrow=open;endFill=1;endSize=12;html=1;" edge="1" parent="1" target="feAVlpUrrlh7gay0loe1-172">
          <mxGeometry width="160" relative="1" as="geometry">
            <mxPoint x="430" y="360" as="sourcePoint" />
            <mxPoint x="440" y="660" as="targetPoint" />
          </mxGeometry>
        </mxCell>
        <mxCell id="feAVlpUrrlh7gay0loe1-176" style="edgeStyle=orthogonalEdgeStyle;rounded=0;orthogonalLoop=1;jettySize=auto;html=1;exitX=1;exitY=0.5;exitDx=0;exitDy=0;" edge="1" parent="1" source="feAVlpUrrlh7gay0loe1-163">
          <mxGeometry relative="1" as="geometry">
            <mxPoint x="450" y="240" as="targetPoint" />
          </mxGeometry>
        </mxCell>
      </root>
    </mxGraphModel>
  </diagram>
</mxfile>
